<svg xmlns="http://www.w3.org/2000/svg" width="33.73" height="9.498" viewBox="0 0 33.73 9.498">
  <g id="Group_210101" data-name="Group 210101" transform="translate(0.5)">
    <g id="Group_209927" data-name="Group 209927" transform="translate(20.5)">
      <g id="Group_209926" data-name="Group 209926" transform="translate(12.729 0) rotate(90)">
        <path id="Path_212051" data-name="Path 212051" d="M1.119,8.739h0a.1.1,0,0,1,.028,0,.182.182,0,0,1,.028.011.1.1,0,0,1,.026.019.111.111,0,0,1,.022.027.543.543,0,0,0,.107.129.354.354,0,0,0,.111.066.472.472,0,0,0,.119.024c.041,0,.084,0,.129,0h.027l.029,0h.112l.016,0a.22.22,0,0,1,.071.025.232.232,0,0,1,.1.113.209.209,0,0,1,.015.075.158.158,0,0,1,0,.036.153.153,0,0,1-.01.035.167.167,0,0,1-.017.034A.268.268,0,0,1,2,9.368l-.018.019L1.961,9.4l-.019.016-.019.015a.44.44,0,0,1-.037.025l-.038.02a.292.292,0,0,1-.039.015l-.039.012-.023,0-.023,0-.023,0H1.678l-.041,0L1.6,9.512,1.555,9.5,1.514,9.49c-.018-.006-.036-.014-.054-.022L1.408,9.44l-.051-.032-.049-.036a.772.772,0,0,1-.08-.075.941.941,0,0,1-.072-.086.918.918,0,0,1-.061-.094,1.022,1.022,0,0,1-.049-.1l-.012-.03c0-.01-.007-.02-.01-.03s-.006-.02-.009-.03L1.006,8.9a.032.032,0,0,1,0-.009.039.039,0,0,0,0-.009s0-.006,0-.008,0-.005,0-.008V8.847A.125.125,0,0,1,1.012,8.8a.109.109,0,0,1,.026-.035.143.143,0,0,1,.036-.022.275.275,0,0,1,.045-.006h0m.3-.667h0a.494.494,0,0,1,.1.011.72.72,0,0,1,.1.03.978.978,0,0,1,.1.045c.034.017.066.036.1.056l0,0,0,0,0,0,0,0,.015.013.014.014.012.014a.083.083,0,0,1,.01.015.249.249,0,0,1,.015.026.255.255,0,0,1,.01.028.191.191,0,0,1,.006.058.253.253,0,0,1-.017.081.23.23,0,0,1-.043.07.221.221,0,0,1-.063.05.174.174,0,0,1-.077.019H1.7l-.023,0L1.654,8.6a.128.128,0,0,1-.023-.011.625.625,0,0,0-.118-.041c-.04-.01-.081-.017-.121-.025s-.081-.015-.121-.025a.62.62,0,0,1-.118-.041.159.159,0,0,1-.036-.021.129.129,0,0,1-.026-.028.116.116,0,0,1-.016-.034.123.123,0,0,1-.006-.036.1.1,0,0,1,0-.023.108.108,0,0,1,.006-.023.243.243,0,0,1,.01-.023L1.1,8.248a.1.1,0,0,1,.009-.012l.009-.011.009-.011.009-.01.016-.016.015-.015.016-.014L1.2,8.146a.291.291,0,0,1,.03-.02.2.2,0,0,1,.031-.016A.338.338,0,0,1,1.294,8.1a.216.216,0,0,1,.032-.01l.024-.005.025,0,.025,0s.011,0,.019,0h0m.812-.9h0a1.54,1.54,0,0,1,.243.018,1.23,1.23,0,0,1,.228.058.992.992,0,0,1,.2.1.826.826,0,0,1,.171.148.854.854,0,0,1,.087.119.913.913,0,0,1,.069.14.969.969,0,0,1,.047.154A.854.854,0,0,1,3.3,8.07a.606.606,0,0,1-.006.108.548.548,0,0,1-.024.1.52.52,0,0,1-.106.184.5.5,0,0,1-.106.091.647.647,0,0,1-.125.065.938.938,0,0,1-.139.042,1.1,1.1,0,0,1-.147.023l-.036,0-.036,0H2.456l-.084,0-.08-.006-.077-.008-.071-.009a.229.229,0,0,1-.083-.028A.217.217,0,0,1,2,8.585a.244.244,0,0,1-.036-.068.24.24,0,0,1-.012-.077.244.244,0,0,1,.012-.077A.227.227,0,0,1,2,8.3a.19.19,0,0,1,.059-.051.211.211,0,0,1,.083-.026L2.274,8.2c.054-.006.115-.014.175-.025a1.182,1.182,0,0,0,.17-.041.268.268,0,0,0,.114-.065l.019-.022.014-.016a.069.069,0,0,0,.008-.012.025.025,0,0,0,0-.012.044.044,0,0,0,0-.013L2.76,7.982l-.017-.025c-.007-.009-.015-.02-.024-.034a.358.358,0,0,0-.051-.06.386.386,0,0,0-.062-.047.612.612,0,0,0-.068-.036.65.65,0,0,0-.07-.026q-.031-.011-.066-.019c-.023-.005-.046-.011-.071-.015s-.05-.007-.077-.009-.053,0-.08,0H2.126a1.461,1.461,0,0,0-.225.018,1.41,1.41,0,0,0-.222.053,1.139,1.139,0,0,0-.2.087.7.7,0,0,0-.16.121l0,0,0,0,0,0,0,0a.2.2,0,0,1-.028.022.15.15,0,0,1-.029.015.191.191,0,0,1-.03.009l-.03,0H1.156a.187.187,0,0,1-.067-.026.227.227,0,0,1-.057-.05A.238.238,0,0,1,.993,7.9a.252.252,0,0,1-.017-.078.2.2,0,0,1,0-.041A.231.231,0,0,1,1.006,7.7a.276.276,0,0,1,.027-.039,1.107,1.107,0,0,1,.132-.129A1.432,1.432,0,0,1,1.5,7.33,1.88,1.88,0,0,1,1.7,7.257c.043-.014.087-.026.13-.036s.088-.019.133-.026.089-.013.134-.016a1.237,1.237,0,0,1,.138-.007h0m.812-1.08h0a.217.217,0,0,1,.076.014.21.21,0,0,1,.069.042.215.215,0,0,1,.053.069.294.294,0,0,1,.028.1c0,.015,0,.029,0,.044s0,.028,0,.043l0,.041c0,.014,0,.026,0,.04a.928.928,0,0,1-.005.114.87.87,0,0,1-.02.108.7.7,0,0,1-.038.106.85.85,0,0,1-.059.108.16.16,0,0,1-.065.056.214.214,0,0,1-.04.015.166.166,0,0,1-.042.006H2.989l-.011,0-.01,0a.1.1,0,0,1-.028-.014.135.135,0,0,1-.024-.022A.145.145,0,0,1,2.9,6.921a.137.137,0,0,1-.01-.04c0-.048-.008-.1-.011-.143s0-.094-.005-.14,0-.093,0-.14,0-.095-.007-.143V6.287a.168.168,0,0,1,0-.037.173.173,0,0,1,.008-.033.282.282,0,0,1,.012-.029A.238.238,0,0,1,2.9,6.162a.153.153,0,0,1,.029-.03.274.274,0,0,1,.035-.022A.2.2,0,0,1,3,6.1a.144.144,0,0,1,.04-.006h0m-1.38-1.46h0a.228.228,0,0,1,.061.008.2.2,0,0,1,.057.026.244.244,0,0,1,.049.044.257.257,0,0,1,.038.064l0,.008,0,.008,0,.009,0,.009a.058.058,0,0,1,0,.006s0,0,0,.006,0,0,0,.006,0,0,0,.006c.012.051.024.1.036.152s.025.1.035.152.019.1.026.153a1.1,1.1,0,0,1,.008.155.174.174,0,0,1,0,.022c0,.007,0,.015,0,.023s0,.015,0,.023,0,.015,0,.022a.189.189,0,0,1-.012.057.138.138,0,0,1-.027.043.119.119,0,0,1-.037.027.106.106,0,0,1-.045.009h0l-.023,0a.1.1,0,0,1-.023-.007A.142.142,0,0,1,1.8,5.65a.177.177,0,0,1-.022-.017.838.838,0,0,1-.108-.125,1.529,1.529,0,0,1-.09-.144c-.028-.05-.054-.1-.079-.153l-.075-.154a.363.363,0,0,1-.016-.039C1.4,5,1.4,4.991,1.394,4.98s-.005-.025-.007-.036a.232.232,0,0,1,0-.036.27.27,0,0,1,.017-.1.288.288,0,0,1,.046-.079.28.28,0,0,1,.068-.058A.3.3,0,0,1,1.6,4.639l.016,0,.016,0,.016,0h.015m-.623-1.06h0a.229.229,0,0,1,.043,0,.213.213,0,0,1,.041.013.161.161,0,0,1,.038.022.227.227,0,0,1,.053.054l.016.026.014.03a.207.207,0,0,1,.011.034c.016.062.035.123.052.184s.035.122.049.183.028.123.037.185a1.294,1.294,0,0,1,.015.188.253.253,0,0,1-.015.09.19.19,0,0,1-.042.065.171.171,0,0,1-.06.039.2.2,0,0,1-.069.014h0L1.2,4.7l-.023,0L1.153,4.69l-.022-.011a.134.134,0,0,1-.021-.014l-.019-.016-.018-.02a.2.2,0,0,1-.015-.023,1.32,1.32,0,0,1-.082-.17c-.024-.058-.043-.119-.062-.18S.878,4.133.861,4.071.827,3.946.809,3.885c0-.006,0-.012,0-.017s0-.012,0-.017a.111.111,0,0,1,0-.017.1.1,0,0,1,0-.016.193.193,0,0,1,0-.046.227.227,0,0,1,.01-.043.243.243,0,0,1,.017-.038.281.281,0,0,1,.024-.034.212.212,0,0,1,.039-.036.233.233,0,0,1,.046-.027.249.249,0,0,1,.05-.016.518.518,0,0,1,.053,0h0m0-1.136v0M.014,0H0V.766L.015.753.031.742.047.733.064.726.08.72.1.717l.016,0H.129A.185.185,0,0,1,.206.732.221.221,0,0,1,.272.779.246.246,0,0,1,.319.845.213.213,0,0,1,.34.924a.17.17,0,0,1,0,.037A.274.274,0,0,1,.331,1a.189.189,0,0,1-.017.036.287.287,0,0,1-.026.036l.154.009c.077.043.174.1.274.168a2.461,2.461,0,0,1,.3.236,1.3,1.3,0,0,1,.24.29.638.638,0,0,1,.1.329v.011a3086.575,3086.575,0,0,1,0,.022.043.043,0,0,0,0,.011.267.267,0,0,1-.019.078.224.224,0,0,1-.039.062.183.183,0,0,1-.055.041.156.156,0,0,1-.065.015H1.149l-.011,0-.011,0-.011,0-.011,0-.011-.005-.011-.006a.142.142,0,0,1-.05-.051A.446.446,0,0,1,1,2.192c-.01-.026-.019-.054-.027-.079a.5.5,0,0,0-.027-.067.943.943,0,0,0-.134-.2,1.372,1.372,0,0,0-.171-.163,1.943,1.943,0,0,0-.191-.135C.384,1.51.318,1.473.254,1.438a.2.2,0,0,1-.043-.033.17.17,0,0,1-.029-.039A.187.187,0,0,1,.16,1.277a.274.274,0,0,1,0-.027.123.123,0,0,1,.005-.026L.176,1.2a.191.191,0,0,1,.012-.024L0,1.345v.984c.02.019.041.037.062.055l.065.052.065.052c.021.017.042.036.062.055l.056-.011.056-.009.057-.006c.019,0,.039,0,.059,0H.507a.157.157,0,0,1,.071.016.14.14,0,0,1,.052.043.218.218,0,0,1,.033.061.265.265,0,0,1,.013.072.363.363,0,0,1,0,.045.353.353,0,0,1-.008.045.286.286,0,0,1-.015.042.262.262,0,0,1-.022.038l.08.166c.005.088.01.174.014.262s.006.175.009.262,0,.175,0,.263,0,.175,0,.263c0,.146,0,.292,0,.438s-.005.292-.008.439S.719,5.259.717,5.4s0,.293-.006.44l.115.038.116.035c.038.011.078.021.117.03l.119.026L1.29,6q.057.011.118.019l.119.014c.04,0,.08,0,.12,0l.078,0L1.8,6.022l.077-.014a.705.705,0,0,0,.075-.021.663.663,0,0,0,.2-.107A.739.739,0,0,0,2.3,5.72a.724.724,0,0,0,.094-.2.659.659,0,0,0,.028-.215.577.577,0,0,0-.018-.13.607.607,0,0,0-.047-.127.593.593,0,0,0-.077-.119.725.725,0,0,0-.109-.108L2.158,4.81,2.146,4.8a.091.091,0,0,1-.012-.015l-.01-.015-.013-.023A.135.135,0,0,1,2.1,4.72.24.24,0,0,1,2.1,4.695a.214.214,0,0,1,0-.026s0-.005,0-.008V4.637A.268.268,0,0,1,2.1,4.57a.282.282,0,0,1,.026-.061.19.19,0,0,1,.039-.049.2.2,0,0,1,.049-.034l.014-.005.014,0,.015,0h.015l.025,0a.128.128,0,0,1,.025.007.211.211,0,0,1,.026.012l.026.017a1.24,1.24,0,0,1,.337.429,1.234,1.234,0,0,1,.088.25,1.251,1.251,0,0,1,.034.259,1.139,1.139,0,0,1-.03.29,1.027,1.027,0,0,1-.1.271.97.97,0,0,1-.181.235,1.036,1.036,0,0,1-.258.183,1.175,1.175,0,0,1-.152.066,1.369,1.369,0,0,1-.159.046,1.385,1.385,0,0,1-.165.026c-.056.005-.112.008-.17.009h0c-.046,0-.092,0-.139,0S1.383,6.5,1.336,6.5s-.094-.015-.141-.025-.094-.021-.141-.033L.968,6.416.884,6.389.8,6.36.716,6.328c.005.139.012.279.018.419s.014.282.02.423.012.283.016.423.006.281.005.419c0,.047,0,.092,0,.139s0,.092,0,.138,0,.091-.006.137l-.008.136c0,.021,0,.043,0,.064s0,.043-.007.064-.005.042-.009.063-.006.041-.011.062A1.851,1.851,0,0,1,.678,9a1.041,1.041,0,0,1-.068.165A.667.667,0,0,1,.518,9.3.535.535,0,0,1,.4,9.4a.486.486,0,0,1-.048.026A.5.5,0,0,1,.3,9.446a.376.376,0,0,1-.056.012.424.424,0,0,1-.06,0h0a.349.349,0,0,1-.044,0L.1,9.455.05,9.446,0,9.432v.789l.049,0,.049,0,.052-.005A.353.353,0,0,0,.208,10.2,3.4,3.4,0,0,0,.69,10.04c.16-.064.321-.137.481-.212s.318-.155.475-.231.313-.147.467-.208l.013,0,.012,0,.012,0h.012a.116.116,0,0,1,.058.015.153.153,0,0,1,.046.042.222.222,0,0,1,.03.058.182.182,0,0,1,.01.067.185.185,0,0,1,0,.039.174.174,0,0,1-.013.036.135.135,0,0,1-.023.032.133.133,0,0,1-.033.026c-.15.084-.317.185-.494.292s-.365.219-.558.325a5.744,5.744,0,0,1-.59.285A2.714,2.714,0,0,1,0,10.768v1.938l.114.006A2.7,2.7,0,0,0,.937,12.5a3.027,3.027,0,0,0,.739-.454,3.553,3.553,0,0,0,.623-.673,4.2,4.2,0,0,0,.475-.866l.079-.187.171.057.008,0h.04l.013,0,.013,0,.013,0a.188.188,0,0,0,.036-.017c.012-.007.023-.015.034-.024a.293.293,0,0,0,.03-.028.269.269,0,0,0,.025-.032.4.4,0,0,0,.026-.038.329.329,0,0,0,.036-.088A.2.2,0,0,0,3.3,10.1v-.021a.084.084,0,0,0,0-.021.072.072,0,0,0-.005-.02.088.088,0,0,0-.008-.019L3.2,9.8l.2-.1a2.1,2.1,0,0,0,.464-.336A2.5,2.5,0,0,0,4.239,8.9a2.889,2.889,0,0,0,.282-.564A3.05,3.05,0,0,0,4.684,7.7c.005-.038.011-.077.016-.115s.008-.077.011-.117.005-.078.007-.118,0-.078,0-.119a3.814,3.814,0,0,0-.031-.518,4,4,0,0,0-.1-.52,4.285,4.285,0,0,0-.171-.509A4.193,4.193,0,0,0,4.18,5.2c-.018-.03-.037-.06-.057-.089s-.042-.057-.064-.083a.854.854,0,0,0-.067-.072A.607.607,0,0,0,3.924,4.9a.214.214,0,0,0-.031-.018l-.03-.014-.029-.008-.028,0H3.793l-.012,0-.011,0-.011,0-.315.148.053-.6-.3-.165c-.027.012-.056.022-.084.031s-.057.016-.087.022-.058.01-.088.013-.06,0-.09,0H2.819l-.033,0-.033,0-.033,0-.09-.016-.09-.025c-.03-.01-.06-.021-.089-.033s-.059-.026-.088-.041a1.214,1.214,0,0,1-.216-.146,1.272,1.272,0,0,1-.179-.185,1.121,1.121,0,0,1-.135-.219,1.212,1.212,0,0,1-.086-.246c0-.022-.008-.043-.012-.065s-.006-.044-.008-.066L1.721,3.2c0-.022,0-.045,0-.067a1.352,1.352,0,0,1,.015-.2,1.517,1.517,0,0,1,.044-.2,1.367,1.367,0,0,1,.073-.192,1.419,1.419,0,0,1,.1-.181c.026-.039.055-.077.084-.112s.061-.069.093-.1a1.116,1.116,0,0,1,.1-.087.851.851,0,0,1,.107-.069c-.187-.172-.376-.342-.566-.511s-.383-.336-.577-.5S.8.647.605.486.212.158.014,0" transform="translate(4.776)" fill="#e6bc5d"/>
        <path id="Path_212052" data-name="Path 212052" d="M2.668,9.238a.231.231,0,0,1,.014-.075A.221.221,0,0,1,2.72,9.1a.215.215,0,0,1,.057-.047.182.182,0,0,1,.07-.023h.179c.045,0,.088,0,.129,0A.455.455,0,0,0,3.276,9a.357.357,0,0,0,.114-.068A.558.558,0,0,0,3.5,8.8a.159.159,0,0,1,.021-.026.114.114,0,0,1,.025-.018.092.092,0,0,1,.026-.01.094.094,0,0,1,.027,0,.122.122,0,0,1,.045.009.111.111,0,0,1,.038.026.118.118,0,0,1,.026.041.124.124,0,0,1,.008.053.025.025,0,0,1,0,.008s0,.005,0,.008,0,.006,0,.009,0,.006,0,.009a.861.861,0,0,1-.095.233.946.946,0,0,1-.156.2.755.755,0,0,1-.2.137.509.509,0,0,1-.216.05.446.446,0,0,1-.085-.009.366.366,0,0,1-.084-.028A.444.444,0,0,1,2.8,9.438a.6.6,0,0,1-.078-.069A.187.187,0,0,1,2.7,9.337.274.274,0,0,1,2.679,9.3.149.149,0,0,1,2.67,9.27c0-.009,0-.021,0-.032M2.8,8.4a.207.207,0,0,1,.021-.1.173.173,0,0,1,.03-.043A.2.2,0,0,1,2.9,8.221,1.065,1.065,0,0,1,3,8.166a.917.917,0,0,1,.1-.045.773.773,0,0,1,.1-.03.5.5,0,0,1,.1-.011.386.386,0,0,1,.168.039.413.413,0,0,1,.078.052.455.455,0,0,1,.072.077.127.127,0,0,1,.015.024c0,.008.007.015.01.024s0,.016.006.024a.207.207,0,0,1,0,.024.128.128,0,0,1-.005.037.141.141,0,0,1-.016.034.123.123,0,0,1-.025.028.141.141,0,0,1-.034.021.62.62,0,0,1-.122.04c-.041.009-.082.015-.124.023s-.082.014-.122.024a.485.485,0,0,0-.118.045c-.007,0-.016.007-.023.011l-.023.007-.022,0H3A.174.174,0,0,1,2.926,8.6a.221.221,0,0,1-.063-.05.236.236,0,0,1-.043-.071A.267.267,0,0,1,2.8,8.4M1.422,8.078a.864.864,0,0,1,.018-.16,1.012,1.012,0,0,1,.046-.155,1.028,1.028,0,0,1,.069-.142A.884.884,0,0,1,1.642,7.5a.872.872,0,0,1,.171-.146,1.011,1.011,0,0,1,.2-.1,1.268,1.268,0,0,1,.228-.058,1.532,1.532,0,0,1,.243-.018,1.815,1.815,0,0,1,.671.133,1.573,1.573,0,0,1,.293.156,1.154,1.154,0,0,1,.233.206.286.286,0,0,1,.028.039.271.271,0,0,1,.018.041.223.223,0,0,1,.01.041.206.206,0,0,1,0,.041.242.242,0,0,1-.066.156.211.211,0,0,1-.066.048.179.179,0,0,1-.078.018.156.156,0,0,1-.035,0,.179.179,0,0,1-.068-.03A.305.305,0,0,1,3.4,7.994a.723.723,0,0,0-.162-.123,1.147,1.147,0,0,0-.2-.088,1.455,1.455,0,0,0-.226-.053,1.5,1.5,0,0,0-.229-.018l-.089,0L2.4,7.723q-.041.005-.079.014c-.026.005-.05.012-.073.019a.613.613,0,0,0-.07.027.5.5,0,0,0-.068.038.526.526,0,0,0-.062.047A.373.373,0,0,0,2,7.926l-.024.036-.017.026-.011.018a.044.044,0,0,0,0,.013.019.019,0,0,0,0,.012.075.075,0,0,0,.008.013l.014.016.019.024a.293.293,0,0,0,.117.065,1.076,1.076,0,0,0,.17.041c.06.011.12.018.174.025l.129.015a.244.244,0,0,1,.085.026.217.217,0,0,1,.107.2.245.245,0,0,1-.013.077.216.216,0,0,1-.036.068.207.207,0,0,1-.06.052.228.228,0,0,1-.083.028l-.082.009L2.4,8.691,2.309,8.7l-.1,0a1.783,1.783,0,0,1-.184-.011,1.14,1.14,0,0,1-.178-.036.747.747,0,0,1-.161-.068.527.527,0,0,1-.133-.108.54.54,0,0,1-.064-.088.48.48,0,0,1-.043-.1.573.573,0,0,1-.024-.1c0-.037,0-.072,0-.109m.025-1.55V6.48a.475.475,0,0,1,0-.05c0-.017,0-.035,0-.052l.005-.055a.279.279,0,0,1,.026-.1.23.23,0,0,1,.053-.07.227.227,0,0,1,.069-.042A.224.224,0,0,1,1.683,6.1a.184.184,0,0,1,.067.012.179.179,0,0,1,.058.036.172.172,0,0,1,.041.061.229.229,0,0,1,.016.087v.028c0,.047-.005.093-.007.14s0,.093,0,.14,0,.093-.007.14-.008.093-.015.14a.171.171,0,0,1-.015.054.119.119,0,0,1-.028.037.122.122,0,0,1-.036.021A.131.131,0,0,1,1.711,7a.158.158,0,0,1-.041-.006.149.149,0,0,1-.039-.016A.163.163,0,0,1,1.6,6.953a.166.166,0,0,1-.026-.035.712.712,0,0,1-.057-.095.688.688,0,0,1-.038-.095.579.579,0,0,1-.021-.1c0-.034-.005-.067-.006-.1M2.731,5.457A1.476,1.476,0,0,1,2.74,5.3q.01-.077.025-.153c.01-.051.021-.1.033-.152s.025-.1.036-.152a.319.319,0,0,1,.036-.093.249.249,0,0,1,.054-.064.223.223,0,0,1,.066-.036.218.218,0,0,1,.073-.012.259.259,0,0,1,.1.02.3.3,0,0,1,.088.056.266.266,0,0,1,.087.2.222.222,0,0,1,0,.035.288.288,0,0,1-.007.036.351.351,0,0,1-.012.037.341.341,0,0,1-.016.038c-.025.052-.049.106-.075.158s-.051.1-.079.154a1.533,1.533,0,0,1-.09.144.968.968,0,0,1-.109.128l-.021.017a.13.13,0,0,1-.022.012l-.022.007-.022,0a.125.125,0,0,1-.045-.009.123.123,0,0,1-.038-.027A.16.16,0,0,1,2.748,5.6a.178.178,0,0,1-.015-.056c0-.007,0-.015,0-.023s0-.015,0-.023,0-.015,0-.023a.169.169,0,0,0,0-.022m.582-.951a1.336,1.336,0,0,1,.015-.192,1.828,1.828,0,0,1,.037-.187c.015-.062.032-.123.049-.184s.036-.123.052-.184a.271.271,0,0,1,.036-.08.214.214,0,0,1,.181-.1.255.255,0,0,1,.09.016.243.243,0,0,1,.078.049.238.238,0,0,1,.055.078.256.256,0,0,1,.018.1c0,.005,0,.011,0,.016s0,.012,0,.017l0,.017a.135.135,0,0,1,0,.018c-.016.06-.032.121-.048.183s-.032.123-.049.184a1.875,1.875,0,0,1-.061.179,1.118,1.118,0,0,1-.081.166.254.254,0,0,1-.036.045.192.192,0,0,1-.042.031.176.176,0,0,1-.046.018.212.212,0,0,1-.047.006.182.182,0,0,1-.07-.014.181.181,0,0,1-.1-.1.2.2,0,0,1-.018-.087m.373-2.062v0M4.723,0H4.709c-.2.157-.4.317-.594.479S3.721.8,3.528.97s-.387.333-.577.5-.379.337-.567.508a1.16,1.16,0,0,1,.107.073,1.3,1.3,0,0,1,.2.189,1.43,1.43,0,0,1,.088.116,1.308,1.308,0,0,1,.1.181,1.347,1.347,0,0,1,.116.387,1.325,1.325,0,0,1,.013.2c0,.022,0,.044,0,.067S3,3.233,3,3.255s-.005.044-.009.066-.008.044-.013.065a1.229,1.229,0,0,1-.087.248,1.265,1.265,0,0,1-.135.221,1.241,1.241,0,0,1-.179.188,1.2,1.2,0,0,1-.216.147,1.258,1.258,0,0,1-.119.054.982.982,0,0,1-.121.038A.95.95,0,0,1,2,4.3a.9.9,0,0,1-.121.008c-.031,0-.061,0-.091,0s-.06-.006-.09-.012-.059-.013-.088-.021-.058-.018-.087-.029l-.3.165.053.6-.315-.14-.011,0-.011,0-.012,0H.913a.193.193,0,0,0-.094.029.455.455,0,0,0-.1.077.877.877,0,0,0-.094.11A1.1,1.1,0,0,0,.545,5.2a4.136,4.136,0,0,0-.239.486A4.071,4.071,0,0,0,.135,6.2a4.146,4.146,0,0,0-.1.519A3.689,3.689,0,0,0,0,7.236c0,.039,0,.079,0,.119s0,.078.006.118.006.077.011.117.009.077.015.116A3.112,3.112,0,0,0,.2,8.34,2.942,2.942,0,0,0,.482,8.9a2.518,2.518,0,0,0,.385.464,2.069,2.069,0,0,0,.468.336l.191.1-.092.215-.008.021-.005.022,0,.022a.174.174,0,0,0,0,.022.293.293,0,0,0,.006.048.455.455,0,0,0,.015.047c.006.015.014.029.021.043a.4.4,0,0,0,.026.038.318.318,0,0,0,.034.037.309.309,0,0,0,.042.034.236.236,0,0,0,.047.025.142.142,0,0,0,.051.01h.022l.011,0,.011,0,.171-.05.073.18a4.227,4.227,0,0,0,.476.87,3.529,3.529,0,0,0,.624.673,3.007,3.007,0,0,0,.739.452,2.733,2.733,0,0,0,.823.208l.114-.005v-1.93a2.816,2.816,0,0,1-.588-.176,6,6,0,0,1-.588-.285c-.192-.1-.379-.217-.556-.323S2.648,9.787,2.5,9.7a.156.156,0,0,1-.034-.026.148.148,0,0,1-.023-.032.141.141,0,0,1-.013-.037.193.193,0,0,1,0-.04.219.219,0,0,1,.041-.127A.156.156,0,0,1,2.51,9.4a.105.105,0,0,1,.058-.015h.01l.011,0,.011,0,.011,0c.154.063.31.136.468.212s.316.155.476.231.321.15.482.213a3.678,3.678,0,0,0,.486.158c.018,0,.036.007.053.009l.05.005.048,0,.049.006V9.442l-.049.014c-.016,0-.032.007-.047.009l-.046.005-.044,0A.418.418,0,0,1,4.3,9.395a.586.586,0,0,1-.171-.2,1.227,1.227,0,0,1-.107-.287,2.153,2.153,0,0,1-.051-.332q-.005-.068-.008-.137c0-.046,0-.092-.005-.138s0-.092,0-.139,0-.093,0-.139c0-.14,0-.279.006-.419s.01-.281.016-.421.014-.282.02-.422.012-.28.016-.419c-.072.029-.145.055-.219.078s-.148.043-.222.058a2.075,2.075,0,0,1-.222.036,1.984,1.984,0,0,1-.22.013,1.557,1.557,0,0,1-.173-.009,1.479,1.479,0,0,1-.169-.027,1.235,1.235,0,0,1-.163-.047,1.469,1.469,0,0,1-.157-.067,1.093,1.093,0,0,1-.256-.183,1.026,1.026,0,0,1-.282-.506A1.139,1.139,0,0,1,1.9,5.4a1.235,1.235,0,0,1,.034-.258,1.233,1.233,0,0,1,.231-.477,1.2,1.2,0,0,1,.2-.2.225.225,0,0,1,.026-.018.133.133,0,0,1,.026-.013.125.125,0,0,1,.025-.007l.025,0a.128.128,0,0,1,.067.019.192.192,0,0,1,.056.05.245.245,0,0,1,.037.072.284.284,0,0,1,.015.084.25.25,0,0,1,0,.052.226.226,0,0,1-.041.1.2.2,0,0,1-.039.04.718.718,0,0,0-.109.109.624.624,0,0,0-.076.119.663.663,0,0,0-.046.127.631.631,0,0,0-.017.13.654.654,0,0,0,.028.214.716.716,0,0,0,.093.2.7.7,0,0,0,.149.159.656.656,0,0,0,.2.1c.026.009.053.017.079.024s.054.012.08.015.055.007.082.009l.082,0c.039,0,.078,0,.117,0s.078-.007.117-.013.077-.012.115-.019l.113-.022.115-.029.115-.032L3.9,5.893l.115-.038c0-.145,0-.291-.006-.436S4,5.128,4,4.982s-.006-.292-.008-.438,0-.293,0-.439c0-.088,0-.175,0-.264s0-.176,0-.264,0-.176.009-.264.008-.176.014-.264l.08-.158a.247.247,0,0,1-.019-.034.251.251,0,0,1-.014-.036.291.291,0,0,1-.009-.038.275.275,0,0,1,0-.038.306.306,0,0,1,.008-.082.21.21,0,0,1,.032-.071.162.162,0,0,1,.056-.05.168.168,0,0,1,.08-.019H4.24l.06.006.059.008.058.01.057.011L4.536,2.5,4.6,2.451,4.661,2.4l.061-.051V1.357l-.188-.171c0,.008.008.017.012.026a.149.149,0,0,1,.008.026.145.145,0,0,1,.005.027.274.274,0,0,1,0,.027.182.182,0,0,1-.005.045.167.167,0,0,1-.016.042.163.163,0,0,1-.029.038.2.2,0,0,1-.043.032c-.064.036-.129.075-.194.118a2.1,2.1,0,0,0-.191.138,1.379,1.379,0,0,0-.171.164,1.035,1.035,0,0,0-.134.2.458.458,0,0,0-.027.067c-.009.025-.017.051-.027.077a.448.448,0,0,1-.035.073.181.181,0,0,1-.05.055l-.023.012-.022.008-.022,0-.021,0a.14.14,0,0,1-.064-.015.154.154,0,0,1-.054-.041.251.251,0,0,1-.04-.062.3.3,0,0,1-.022-.079s0-.007,0-.011,0-.007,0-.011V2.123a.651.651,0,0,1,.1-.329,1.357,1.357,0,0,1,.242-.29,2.544,2.544,0,0,1,.3-.236c.1-.068.2-.125.274-.168l.147-.016a.172.172,0,0,1-.025-.035.262.262,0,0,1-.016-.036A.263.263,0,0,1,4.383.976a.164.164,0,0,1,0-.036A.2.2,0,0,1,4.4.863.235.235,0,0,1,4.45.8.225.225,0,0,1,4.515.752.18.18,0,0,1,4.59.735l.033,0a.148.148,0,0,1,.033.009l.033.016a.187.187,0,0,1,.032.025V0" transform="translate(0 0.016)" fill="#e6bc5d"/>
      </g>
    </g>
    <line id="Line_1480" data-name="Line 1480" x2="22" transform="translate(0 5)" fill="none" stroke="#e6bc5d" stroke-linecap="round" stroke-width="1"/>
  </g>
</svg>
